<svg xmlns="http://www.w3.org/2000/svg" viewBox="0 0 408.21 352.7"><defs><style>.cls-1{fill:#fff;}</style></defs><title>Logo</title><g id="Warstwa_2" data-name="Warstwa 2"><g id="Warstwa_1-2" data-name="Warstwa 1"><path class="cls-1" d="M36.61,185.93S-3.7,97.37,77.81,23.54L61.9,206.46s-13.9,4.8-14.76,7.47,3.54,16.55,12.25,21.19C59.64,307.79,58,342.87,58,342.87s5.26,13.69,27,8.76l1.3-129.21s26-12.76,27.72-6.55-3.64,103.51-6.52,119.75c-2.52,14.21,23.48.47,25.22-1.58s6.33-42.67,14.33-124c-31.35-11.08-38.19-2.65-38.19-2.65l28.63-22.18S164.92,65,193.51,29.57c-13.95-9.24-21-10.69-36.55-7.42-20.78,27-42.16,134.7-42.12,146.08S99.29,203,87.12,204.88C112.6,24.75,116,14.88,116,14.88S116,5,96.87.22C82.08-1,75.13,2.66,60.41,21.7S-34,146.74,16.62,190.46C20.12,194.44,27.07,194.89,36.61,185.93Z"/><path class="cls-1" d="M191,118.73s-7.4,38.08-6,46.54c0,0,14.88-50.5,29.17-73.24,2.22-3.54,26.67-5.06,35.59,2-12.27,14.8-24,86.37-19.87,93.56,22.18-16.4,24.84-39.1,24.84-39.1l6.52,5.67a178.15,178.15,0,0,1-11.9,22.52c-6.8,10.64-19.44,19-19.44,19a203.75,203.75,0,0,1-25.34-6.65c-2.75-4.94.9-38.52,3.9-59C169.71,189.54,184,270.81,184,270.81c-3.41,2.4-15.72,5.19-22.24.16-9.73-44.28-.3-150.52-.51-150.05C158.89,126.33,184.33,109.72,191,118.73Z"/><path class="cls-1" d="M261.09,98.64s-26.89,141,3.23,146.51c21.23,6.57,41.5-71.88,46.92-84.25L317,145.46l-7.56-9.66S296,199.3,275.88,226c-5.48-1.68,2.09-90.83,17-122.82C292.92,103.13,273.42,105.92,261.09,98.64Z"/><path class="cls-1" d="M294.49,87.25"/><path class="cls-1" d="M294.5,88.55s13.85-51.24,22-65.77c-12-8-31.82-.27-34.21.92s-11.1,55.17-10.39,64.11C278.7,92,294.5,88.55,294.5,88.55Z"/><path class="cls-1" d="M349,93.68S353.85,116,346,134c1,6.59,8.25,11.78,13,8.75s22.06-53.1,14.14-65.94S340,57.37,336.9,59s-63.1,55.89-17.41,112.83l16.83,18.75,7.9,8.8s-8.48,21.75-19.42,23.9A14.17,14.17,0,0,1,323.38,210s3-13.36,40.22-44.54,47.7-58.26,43.87-76.89c-9-17.15-16.08.39-15,6.65s-1.71,43.62-37,69.8-56.74,42.43-56,49.09,5.56,25.39,8,25.83,54.35-13.61,60.69-60.87c-28.83-26.63-32.27-32.35-35-41.47S328.86,109.62,349,93.68Z"/><path class="cls-1" d="M151,298.42c18.28-6.75,37.35-11.73,56.33-16.06a374.66,374.66,0,0,1,57.33-8.9,544.27,544.27,0,0,1,57.53-1.36c9.53.35,19,1,28.51,1.87,9.32.86,18.94,2.65,28.24,1.51,4.12-.5,6-5.55,2.18-8-12.18-7.86-29.07-8.72-43.2-9.55a370,370,0,0,0-46.51.58c-30.92,2.07-61.3,7.24-90.89,16.55-17.25,5.43-33.88,12.45-50.83,18.7-2.92,1.08-1.66,5.79,1.3,4.7Z"/><circle class="cls-1" cx="381.59" cy="210.53" r="8.67"/><path class="cls-1" d="M221.09,313.75q0,6.71-3.68,10.24t-10.48,3.53q-1.22,0-2.55,0t-2.57-.14l-2.25-.18q-1-.09-1.51-.18a1.47,1.47,0,0,1-.88-.41,1.42,1.42,0,0,1-.29-1V295.3a1.42,1.42,0,0,1,.29-1,1.47,1.47,0,0,1,.88-.4q.5-.09,1.51-.18l2.25-.18q1.24-.09,2.57-.13t2.55,0q6.81,0,10.48,3.53t3.68,10.24Zm-6.26-6.6a12.15,12.15,0,0,0-.61-4.17,6.55,6.55,0,0,0-1.66-2.62A5.87,5.87,0,0,0,210,299a12.27,12.27,0,0,0-3.13-.38q-1.26,0-2.16,0l-1.62.09v23.4l1.62.09q.9,0,2.16,0a12.28,12.28,0,0,0,3.13-.38,5.86,5.86,0,0,0,2.52-1.35,6.55,6.55,0,0,0,1.66-2.61,12.16,12.16,0,0,0,.61-4.17Z"/><path class="cls-1" d="M250.5,320.81a9.9,9.9,0,0,1-2.56,3.92,9.76,9.76,0,0,1-3.91,2.14,19.25,19.25,0,0,1-9.95,0,9.76,9.76,0,0,1-3.92-2.14,9.9,9.9,0,0,1-2.56-3.92,17.1,17.1,0,0,1-.92-6v-20.2a.79.79,0,0,1,.27-.61.9.9,0,0,1,.63-.25H232a.9.9,0,0,1,.63.25.79.79,0,0,1,.27.61v20.24a18.25,18.25,0,0,0,.27,3.36,5.73,5.73,0,0,0,1,2.37,4.07,4.07,0,0,0,1.87,1.4,10.25,10.25,0,0,0,6,0,4.06,4.06,0,0,0,1.89-1.4,5.73,5.73,0,0,0,1-2.37,18.25,18.25,0,0,0,.27-3.36V294.58a.79.79,0,0,1,.27-.61.9.9,0,0,1,.63-.25h4.46a.9.9,0,0,1,.63.25.79.79,0,0,1,.27.61v20.2A17.1,17.1,0,0,1,250.5,320.81Z"/><path class="cls-1" d="M282.25,326.62a.48.48,0,0,1-.54.54h-5.49a.6.6,0,0,1-.54-.27,5.5,5.5,0,0,1-.36-.63l-6.48-12h-.63q-.9,0-2.07-.07l-1.94-.11v12.15a.9.9,0,0,1-.25.63.79.79,0,0,1-.61.27h-4.5a.92.92,0,0,1-.9-.9v-31a1.14,1.14,0,0,1,.38-1,2.22,2.22,0,0,1,1.06-.38q1.76-.27,4.06-.43t4.78-.16a23,23,0,0,1,5,.52,12.24,12.24,0,0,1,4.12,1.69,8.51,8.51,0,0,1,2.84,3.13,10.05,10.05,0,0,1,1.06,4.84v.41a9.06,9.06,0,0,1-6.12,9.18l7.06,13.14A.66.66,0,0,1,282.25,326.62ZM275,303.53a4.11,4.11,0,0,0-1.69-3.69,9.21,9.21,0,0,0-5.06-1.12l-.92,0-1.15,0-1.1,0q-.52,0-.83.07V309l.83,0,1.17,0,1.17,0,.83,0a9.16,9.16,0,0,0,5.13-1.12q1.62-1.12,1.62-4.09Z"/><path class="cls-1" d="M312.17,326.39a.72.72,0,0,1-.22.56.84.84,0,0,1-.58.2h-4.77a.73.73,0,0,1-.54-.22,1.21,1.21,0,0,1-.31-.54l-2.07-8.55H293.32l-2.07,8.55a1.23,1.23,0,0,1-.32.54.73.73,0,0,1-.54.22h-4.77a.84.84,0,0,1-.59-.2.72.72,0,0,1-.22-.56.2.2,0,0,1,0-.09.33.33,0,0,0,0-.13L292.24,298a6.11,6.11,0,0,1,1.17-2.47,5.75,5.75,0,0,1,1.64-1.37,5.43,5.43,0,0,1,1.8-.61,10.08,10.08,0,0,1,3.29,0,5.46,5.46,0,0,1,1.8.61,5.8,5.8,0,0,1,1.64,1.37,6.13,6.13,0,0,1,1.17,2.47l7.38,28.21a.3.3,0,0,0,0,.13A.22.22,0,0,1,312.17,326.39Zm-13-27a1.36,1.36,0,0,0-.22-.56.86.86,0,0,0-1,0,1.34,1.34,0,0,0-.22.56l-3.24,13.37h7.92Z"/><path class="cls-1" d="M340.7,326.75c0,.27-.22.41-.68.41h-6a1.13,1.13,0,0,1-1-.5l-10.3-15.34v14.94a.92.92,0,0,1-.9.9H317.3a.92.92,0,0,1-.9-.9V294.62a.79.79,0,0,1,.27-.61.91.91,0,0,1,.63-.25h4.45a.91.91,0,0,1,.63.25.79.79,0,0,1,.27.61v14.31l11-14.81a.81.81,0,0,1,.43-.29,2.33,2.33,0,0,1,.61-.07h5.13q.86,0,.86.54a1.24,1.24,0,0,1-.31.72l-11.52,14.89,11.61,16.29A1.22,1.22,0,0,1,340.7,326.75Z"/></g></g></svg>